{"title":"Vegas.S01E02.720p.WEB-DL.DD5.1.H.264-KiNGS","uid":7693221,"size":1465536507,"categoryP":"video","categoryS":"hd___tv_shows","magnet":"?xt=urn:btih:61cbf67cbe779f6b621569d54555e51c24364ca0&amp;dn=Vegas.S01E02.720p.WEB-DL.DD5.1.H.264-KiNGS&amp;tr=udp%3A%2F%2Ftracker.openbittorrent.com%3A80&amp;tr=udp%3A%2F%2Fopen.demonii.com%3A1337&amp;tr=udp%3A%2F%2Ftracker.coppersurfer.tk%3A6969&amp;tr=udp%3A%2F%2Fexodus.desync.com%3A6969","seeders":0,"leechers":0,"uploader":"sceneline","files":4,"time":1349287868,"description":"-\n\n      the fast  and The Hottest Private Tracker on the net\n\n(((--Registration is Open!!--)))\n\nPlease Seed back to make the speed Faster!!!\n\nand don't forget to visit ......\n\n\n ............ NFO .............\n-General\nUnique ID                                : 190773361728573434350301064621638043456 (0x8F859CED3441B331B0F8CB3B46244740)\nComplete name                            : D:iTunesTV ShowsVegasVegas.S01E02.720p.WEB-DL.DD5.1.H.264-KiNGSVegas.S01E02.720p.WEB-DL.DD5.1.H.264-KiNGS.mkv\nFormat                                   : Matroska\nFormat version                           : Version 2\nFile size                                : 1.36 GiB\nDuration                                 : 43mn 46s\nOverall bit rate                         : 4 464 Kbps\nEncoded date                             : UTC 2012-10-03 08:15:56\nWriting application                      : mkvmerge v5.8.0 ('No Sleep / Pillow') built on Sep  2 2012 15:37:04\nWriting library                          : libebml v1.2.3 + libmatroska v1.3.0\n\nVideo\nID                                       : 1\nFormat                                   : AVC\nFormat/Info                              : Advanced Video Codec\nFormat profile                           : &lt;a class=&quot;__cf_email__&quot; href=&quot;/cdn-cgi/l/email-protection&quot; data-cfemail=&quot;e5ad8c828da5a9d6cbd4&quot;&gt;[email&amp;#160;protected]&lt;/a&gt;&lt;script cf-hash='f9e31' type=&quot;text/javascript&quot;&gt;\n/* &lt;![CDATA[ */!function(){try{var t=&quot;currentScript&quot;in document?document.currentScript:function(){for(var t=document.getElementsByTagName(&quot;script&quot;),e=t.length;e--;)if(t[e].getAttribute(&quot;cf-hash&quot;))return t[e]}();if(t&amp;&amp;t.previousSibling){var e,r,n,i,c=t.previousSibling,a=c.getAttribute(&quot;data-cfemail&quot;);if(a){for(e=&quot;&quot;,r=parseInt(a.substr(0,2),16),n=2;a.length-n;n+=2)i=parseInt(a.substr(n,2),16)^r,e+=String.fromCharCode(i);e=document.createTextNode(e),c.parentNode.replaceChild(e,c)}}}catch(u){}}();/* ]]&gt; */&lt;/script&gt;\nFormat settings, CABAC                   : No\nFormat settings, ReFrames                : 2 frames\nCodec ID                                 : V_MPEG4/ISO/AVC\nDuration                                 : 43mn 46s\nBit rate                                 : 3 991 Kbps\nWidth                                    : 1 280 pixels\nHeight                                   : 720 pixels\nDisplay aspect ratio                     : 16:9\nFrame rate mode                          : Constant\nFrame rate                               : 23.976 fps\nColor space                              : YUV\nChroma subsampling                       : 4:2:0\nBit depth                                : 8 bits\nScan type                                : Progressive\nBits/(Pixel*Frame)                       : 0.181\nStream size                              : 1.22 GiB (89%)\nLanguage                                 : English\nDefault                                  : Yes\nForced                                   : No\nColor primaries                          : BT.709\nTransfer characteristics                 : BT.709\nMatrix coefficients                      : BT.709\n\nAudio\nID                                       : 2\nFormat                                   : AC-3\nFormat/Info                              : Audio Coding 3\nMode extension                           : CM (complete main)\nFormat settings, Endianness              : Big\nCodec ID                                 : A_AC3\nDuration                                 : 43mn 46s\nBit rate mode                            : Constant\nBit rate                                 : 384 Kbps\nChannel(s)                               : 6 channels\nChannel positions                        : Front: L C R, Side: L R, LFE\nSampling rate                            : 48.0 KHz\nBit depth                                : 16 bits\nCompression mode                         : Lossy\nStream size                              : 120 MiB (9%)\nLanguage                                 : English\nDefault                                  : Yes\nForced                                   : No","torrent":{"xt":"urn:btih:61cbf67cbe779f6b621569d54555e51c24364ca0","amp;dn":"Vegas.S01E02.720p.WEB-DL.DD5.1.H.264-KiNGS","amp;tr":["udp%3A%2F%2Ftracker.openbittorrent.com%3A80","udp%3A%2F%2Fopen.demonii.com%3A1337","udp%3A%2F%2Ftracker.coppersurfer.tk%3A6969","udp%3A%2F%2Fexodus.desync.com%3A6969"],"infoHash":"61cbf67cbe779f6b621569d54555e51c24364ca0","infoHashBuffer":{"type":"Buffer","data":[97,203,246,124,190,119,159,107,98,21,105,213,69,85,229,28,36,54,76,160]},"announce":[],"urlList":[]}}